<svg id="Layer_1" enable-background="new 0 0 128 128" height="512" viewBox="0 0 128 128" width="512" xmlns="http://www.w3.org/2000/svg"><path d="m106.119 40.374c-2.118-13.522-13.904-23.642-27.674-23.642-8.57 0-16.729 3.979-22.019 10.692-2.784-1.822-6.09-2.816-9.412-2.816-8.29 0-15.25 5.744-16.848 13.771-8.89.736-15.74 8.109-15.74 17.129 0 1.424.174 2.851.517 4.241 1.945 7.921 9.191 13.453 17.62 13.453h2.333v5.266c0 1.855 1.509 3.364 3.364 3.364h55.479c1.855 0 3.364-1.509 3.364-3.364v-5.266h3.63c5.413 0 10.478-2.472 13.548-6.612 2.153-2.905 3.292-6.372 3.292-10.027 0-7.338-4.577-13.765-11.454-16.189z" fill="#e6e7e8"/><path d="m93.739 82.955h-55.478c-1.855 0-3.364 1.509-3.364 3.364v10.785c0 1.855 1.509 3.364 3.364 3.364h26.739v8.008c-1.11.336-1.978 1.204-2.314 2.313h-26.79c-.553 0-1 .447-1 1s.447 1 1 1h26.789c.433 1.429 1.746 2.479 3.314 2.479s2.882-1.05 3.314-2.479h26.789c.553 0 1-.447 1-1s-.447-1-1-1h-26.788c-.336-1.11-1.205-1.978-2.314-2.313v-8.008h26.739c1.855 0 3.364-1.509 3.364-3.364v-10.785c.001-1.855-1.508-3.364-3.364-3.364z" fill="#e6e7e8"/><path d="m101.218 37.128c-1.789-13.385-13.182-23.396-26.772-23.396-8.644 0-16.715 4.115-21.803 11.062-2.78-2.062-6.159-3.186-9.628-3.186-8.08 0-14.804 5.837-15.999 13.723-8.649.316-15.589 7.452-15.589 16.178 0 1.343.164 2.69.487 4.003 1.836 7.473 8.683 12.691 16.649 12.691h68.17c5.098 0 9.861-2.32 12.744-6.208 2.025-2.731 3.096-5.993 3.096-9.432 0-7.084-4.636-13.336-11.355-15.435z" fill="#d4fbff"/><path d="m14.914 58.951c-.323-1.389-.487-2.816-.487-4.237 0-8.779 6.271-16.037 14.32-17.021.733-.09 1.337-.627 1.492-1.349 1.655-7.707 8.104-13.277 15.776-13.277 1.991 0 3.949.404 5.784 1.151-2.608-1.69-5.658-2.611-8.784-2.611-8.08 0-14.804 5.837-15.999 13.723-8.649.316-15.589 7.452-15.589 16.178 0 1.343.164 2.69.487 4.003.789 3.211 2.507 6.001 4.838 8.145-.812-1.442-1.445-3.014-1.838-4.705z" fill="#fff"/><path d="m89.739 79.955h-55.479c-1.306 0-2.364 1.059-2.364 2.364v10.786c0 1.306 1.058 2.364 2.364 2.364h55.479c1.306 0 2.364-1.058 2.364-2.364v-10.786c.001-1.306-1.058-2.364-2.364-2.364z" fill="#6dc9f7"/><path d="m43.807 85.914h-5.564c-.989 0-1.798.809-1.798 1.798s.809 1.798 1.798 1.798h5.564c.989 0 1.798-.809 1.798-1.798-.001-.989-.81-1.798-1.798-1.798z" fill="#fa759e"/><path d="m87.215 83.464h-27.19c-.517 0-.94.423-.94.94s.423.94.94.94h27.19c.517 0 .94-.423.94-.94s-.423-.94-.94-.94z" fill="#0089ef"/><path d="m87.215 86.771h-27.19c-.517 0-.94.423-.94.94s.423.94.94.94h27.19c.517 0 .94-.423.94-.94 0-.516-.423-.94-.94-.94z" fill="#0089ef"/><path d="m87.215 90.079h-27.19c-.517 0-.94.423-.94.94s.423.94.94.94h27.19c.517 0 .94-.423.94-.94s-.423-.94-.94-.94z" fill="#0089ef"/><path d="m89.739 61.319h-55.479c-1.306 0-2.364 1.058-2.364 2.364v10.786c0 1.306 1.058 2.364 2.364 2.364h55.479c1.306 0 2.364-1.058 2.364-2.364v-10.786c.001-1.306-1.058-2.364-2.364-2.364z" fill="#6dc9f7"/><path d="m43.807 67.278h-5.564c-.989 0-1.798.809-1.798 1.798s.809 1.798 1.798 1.798h5.564c.989 0 1.798-.809 1.798-1.798s-.81-1.798-1.798-1.798z" fill="#fa759e"/><path d="m87.215 64.828h-27.19c-.517 0-.94.423-.94.94s.423.94.94.94h27.19c.517 0 .94-.423.94-.94 0-.516-.423-.94-.94-.94z" fill="#0089ef"/><path d="m87.215 68.136h-27.19c-.517 0-.94.423-.94.94s.423.94.94.94h27.19c.517 0 .94-.423.94-.94s-.423-.94-.94-.94z" fill="#0089ef"/><path d="m87.215 71.443h-27.19c-.517 0-.94.423-.94.94s.423.94.94.94h27.19c.517 0 .94-.423.94-.94s-.423-.94-.94-.94z" fill="#0089ef"/><path d="m89.739 42.683h-55.479c-1.306 0-2.364 1.058-2.364 2.364v10.786c0 1.306 1.058 2.364 2.364 2.364h55.479c1.306 0 2.364-1.058 2.364-2.364v-10.786c.001-1.305-1.058-2.364-2.364-2.364z" fill="#6dc9f7"/><path d="m43.807 48.643h-5.564c-.989 0-1.798.809-1.798 1.798s.809 1.798 1.798 1.798h5.564c.989 0 1.798-.809 1.798-1.798-.001-.989-.81-1.798-1.798-1.798z" fill="#fa759e"/><path d="m87.215 46.193h-27.19c-.517 0-.94.423-.94.94s.423.94.94.94h27.19c.517 0 .94-.423.94-.94s-.423-.94-.94-.94z" fill="#0089ef"/><path d="m87.215 49.5h-27.19c-.517 0-.94.423-.94.94s.423.94.94.94h27.19c.517 0 .94-.423.94-.94s-.423-.94-.94-.94z" fill="#0089ef"/><path d="m87.215 52.807h-27.19c-.517 0-.94.423-.94.94s.423.94.94.94h27.19c.517 0 .94-.423.94-.94s-.423-.94-.94-.94z" fill="#0089ef"/><path d="m62 105.312c-1.363 0-2.478 1.115-2.478 2.479 0 1.363 1.115 2.478 2.478 2.478s2.478-1.115 2.478-2.478c0-1.364-1.115-2.479-2.478-2.479z" fill="#fa759e"/><g fill="#3a2c60"><path d="m93.813 23.349c.197.22.471.332.744.332.238 0 .478-.085.668-.256.411-.369.445-1.002.076-1.412-.925-1.029-1.938-2.001-3.011-2.887-.428-.352-1.057-.291-1.408.135s-.291 1.057.135 1.408c.998.822 1.938 1.725 2.796 2.68z"/><path d="m102.119 36.373c-.624-4.005-2.071-7.741-4.307-11.117-.306-.46-.924-.587-1.387-.281-.46.306-.586.926-.281 1.387 2.183 3.294 3.556 6.961 4.082 10.898.052.385.322.706.693.821 6.372 1.991 10.653 7.811 10.653 14.481 0 3.223-1.003 6.278-2.899 8.836-2.694 3.634-7.158 5.804-11.94 5.804h-3.63v-3.52c0-1.855-1.509-3.364-3.364-3.364h-55.478c-1.855 0-3.364 1.509-3.364 3.364v3.52h-2.333c-7.506 0-13.952-4.906-15.679-11.931-.304-1.234-.458-2.501-.458-3.764 0-8.211 6.424-14.878 14.625-15.179.48-.018.881-.374.952-.85 1.131-7.458 7.443-12.872 15.011-12.872 3.226 0 6.433 1.062 9.032 2.989.215.158.483.227.745.185.264-.039.5-.183.657-.397 4.886-6.67 12.734-10.652 20.996-10.652 4.655 0 9.223 1.239 13.209 3.583.477.28 1.089.12 1.369-.355.279-.477.121-1.089-.355-1.369-4.294-2.524-9.212-3.858-14.223-3.858-8.57 0-16.729 3.979-22.019 10.692-2.784-1.822-6.09-2.816-9.412-2.816-8.29 0-15.25 5.744-16.848 13.771-8.89.736-15.74 8.109-15.74 17.129 0 1.424.174 2.851.517 4.241 1.945 7.921 9.191 13.453 17.62 13.453h2.333v5.267c0 1.855 1.509 3.364 3.364 3.364h55.479c1.855 0 3.364-1.509 3.364-3.364v-5.267h3.63c5.413 0 10.478-2.472 13.548-6.612 2.153-2.905 3.292-6.372 3.292-10.027 0-7.338-4.576-13.766-11.454-16.19zm-11.015 38.096c0 .752-.612 1.364-1.364 1.364h-55.479c-.752 0-1.364-.612-1.364-1.364v-10.786c0-.752.612-1.364 1.364-1.364h55.479c.752 0 1.364.612 1.364 1.364z"/><path d="m89.739 78.954h-55.478c-1.855 0-3.364 1.509-3.364 3.364v10.786c0 1.855 1.509 3.364 3.364 3.364h26.739v8.007c-1.11.336-1.978 1.205-2.314 2.314h-26.79c-.553 0-1 .447-1 1s.447 1 1 1h26.789c.433 1.429 1.746 2.479 3.314 2.479s2.882-1.05 3.314-2.479h26.789c.553 0 1-.447 1-1s-.447-1-1-1h-26.788c-.336-1.11-1.205-1.978-2.314-2.314v-8.007h26.739c1.855 0 3.364-1.509 3.364-3.364v-10.785c.001-1.856-1.508-3.365-3.364-3.365zm-26.26 28.836c0 .815-.663 1.479-1.479 1.479s-1.479-.663-1.479-1.479.663-1.479 1.479-1.479 1.479.664 1.479 1.479zm27.625-14.685c0 .752-.612 1.364-1.364 1.364h-55.479c-.752 0-1.364-.612-1.364-1.364v-10.786c0-.752.612-1.364 1.364-1.364h55.479c.752 0 1.364.612 1.364 1.364z"/><path d="m30.896 45.047v10.786c0 1.855 1.509 3.364 3.364 3.364h55.479c1.855 0 3.364-1.509 3.364-3.364v-10.786c0-1.855-1.509-3.364-3.364-3.364h-55.478c-1.856 0-3.365 1.509-3.365 3.364zm60.208 0v10.786c0 .752-.612 1.364-1.364 1.364h-55.479c-.752 0-1.364-.612-1.364-1.364v-10.786c0-.752.612-1.364 1.364-1.364h55.479c.751 0 1.364.612 1.364 1.364z"/></g></svg>