<?xml version="1.0" encoding="iso-8859-1"?>
<!-- Generator: Adobe Illustrator 19.0.0, SVG Export Plug-In . SVG Version: 6.00 Build 0)  -->
<svg version="1.1" id="Capa_1" xmlns="http://www.w3.org/2000/svg" xmlns:xlink="http://www.w3.org/1999/xlink" x="0px" y="0px"
	 viewBox="0 0 512.025 512.025" style="enable-background:new 0 0 512.025 512.025;" xml:space="preserve">
<g transform="translate(-1)">
	<g transform="translate(1 1)">
		<path style="fill:#A4C2F7;" d="M503.491,24.612v102.4c-0.028,9.414-7.652,17.039-17.067,17.067h-93.867l-51.2,42.667v-42.667
			h-17.067c-3.4-0.019-6.721-1.027-9.557-2.901c-4.697-3.185-7.51-8.491-7.509-14.165v-102.4
			c0.027-9.414,7.652-17.039,17.067-17.067h162.133C495.839,7.573,503.464,15.198,503.491,24.612z"/>
		<path style="fill:#E3E7F2;" d="M477.891,24.612v102.4c-0.028,9.414-7.652,17.039-17.067,17.067h-93.867l-25.6,21.333v-21.333
			h-17.067c-3.4-0.019-6.721-1.027-9.557-2.901c-4.697-3.185-7.51-8.491-7.509-14.165v-102.4
			c0.027-9.414,7.652-17.039,17.067-17.067h136.533C470.239,7.573,477.864,15.198,477.891,24.612z"/>
		<path style="fill:#7FABFA;" d="M341.273,348.281c-0.427,3.328-4.437,6.059-6.827,7.851c-5.291,3.84-16.043,6.4-17.323,13.312
			c-0.726,3.509-0.307,7.158,1.195,10.411c3.669,7.509,7.68,11.605,4.864,13.909c-2.816,2.389-10.496,8.021-10.496,8.021
			s7.168,9.13,3.243,11.861c-5.035,3.499-11.349,5.12-13.056,11.691c-0.507,5.143,0.016,10.335,1.536,15.275
			c0.527,4.86-0.117,9.776-1.877,14.336c-2.531,9.173-11.771,14.785-21.077,12.8c-2.731-0.597-6.827-1.451-11.861-2.731
			c-11.093-2.731-26.709-6.912-43.093-12.288c-2.929,1.469-5.678,3.273-8.192,5.376c-12.436,12.431-21.737,27.64-27.136,44.373
			h-25.6l-139.947-0.171l-0.512-0.341c28.587-40.789,30.891-94.123,16.811-140.715c-2.774-10.423-6.905-20.435-12.288-29.781
			c-5.509-8.216-10.061-17.034-13.568-26.283c-6.616-18.285-8.923-37.851-6.741-57.173c4.142-38.697,24.918-73.677,56.917-95.829
			c21.086-13.637,45.269-21.737,70.315-23.552l9.813-0.085l24.32-0.085c21.95,1.798,43.607,6.21,64.512,13.141
			c15.125,4.483,28.923,12.598,40.192,23.637c10.976,11.463,19.485,25.055,25.003,39.936c2.543,7.343,4.624,14.839,6.229,22.443
			c2.649,8.359,5.901,16.516,9.728,24.405c1.036,2.422,1.503,5.049,1.365,7.68c-1.28,8.875-14.848,12.8-14.933,21.931
			c0.084,2.03,0.702,4.002,1.792,5.717c8.002,16.593,17.819,32.247,29.269,46.677C336.494,337.359,341.955,343.673,341.273,348.281z
			"/>
		<path style="fill:#E3E7F2;" d="M315.673,348.281c-0.427,3.328-4.437,6.059-6.827,7.851c-5.291,3.84-16.043,6.4-17.323,13.312
			c-0.726,3.509-0.307,7.158,1.195,10.411c3.669,7.509,7.68,11.605,4.864,13.909c-2.816,2.389-10.496,8.021-10.496,8.021
			s7.168,9.13,3.243,11.861c-5.035,3.499-11.349,5.12-13.056,11.691c-0.507,5.143,0.016,10.335,1.536,15.275
			c0.527,4.86-0.117,9.776-1.877,14.336c-1.364,4.025-3.924,7.539-7.339,10.069c-11.093-2.731-26.709-6.912-43.093-12.288
			c-2.929,1.469-5.678,3.273-8.192,5.376c-5.632-1.621-11.435-3.413-17.408-5.376c-23.125,11.264-35.328,49.749-35.328,49.749
			l-139.947-0.171l-0.512-0.341c28.587-40.789,30.891-94.123,16.811-140.715c-2.774-10.423-6.905-20.435-12.288-29.781
			c-5.509-8.216-10.061-17.034-13.568-26.283c-6.616-18.285-8.923-37.851-6.741-57.173c4.142-38.697,24.918-73.677,56.917-95.829
			c21.086-13.637,45.269-21.737,70.315-23.552l9.813-0.085c21.511,1.895,42.73,6.276,63.232,13.056
			c15.125,4.483,28.923,12.598,40.192,23.637c10.976,11.463,19.485,25.055,25.003,39.936c2.543,7.343,4.624,14.839,6.229,22.443
			c2.649,8.359,5.901,16.516,9.728,24.405c1.036,2.422,1.503,5.049,1.365,7.68c-1.28,8.875-14.848,12.8-14.933,21.931
			c0.084,2.03,0.702,4.002,1.792,5.717c8.002,16.593,17.819,32.247,29.269,46.677C310.894,337.359,316.355,343.673,315.673,348.281z
			"/>
		<path style="fill:#A4C2F7;" d="M136.558,249.465V118.479c0-9.426,7.641-17.067,17.067-17.067c9.426,0,17.067,7.641,17.067,17.067
			v130.987H136.558z"/>
		<circle style="fill:#D4E1F4;" cx="153.625" cy="297.679" r="51.2"/>
		<g>
			<path style="fill:#FFFFFF;" d="M25.624,502.308l139.947,0.171h25.6l-139.947-0.171l-0.512-0.341
				c28.587-40.789,30.891-94.123,16.811-140.715c-2.774-10.423-6.905-20.435-12.288-29.781
				c-5.509-8.216-10.061-17.034-13.568-26.283c-6.616-18.285-8.923-37.851-6.741-57.173c4.142-38.697,24.918-73.677,56.917-95.829
				c21.086-13.637,45.269-21.737,70.315-23.552v-10.155c0.013-4.122,1.53-8.097,4.267-11.18c-4.651-5.384-12.163-7.302-18.826-4.808
				c-6.663,2.494-11.068,8.873-11.041,15.988v10.155c-25.045,1.815-49.229,9.915-70.315,23.552
				c-31.999,22.152-52.775,57.132-56.917,95.829c-2.182,19.323,0.125,38.888,6.741,57.173c3.507,9.249,8.059,18.067,13.568,26.283
				c5.383,9.346,9.514,19.359,12.288,29.781c14.08,46.592,11.776,99.925-16.811,140.715L25.624,502.308z"/>
			<path style="fill:#FFFFFF;" d="M281.454,467.748c4.758,1.098,9.759,0.104,13.734-2.732c-11.093-2.73-26.707-6.911-43.089-12.287
				c-2.921,1.465-5.662,3.264-8.17,5.36c9.699,2.828,18.639,5.199,25.664,6.928C274.627,466.297,278.723,467.151,281.454,467.748z"
				/>
			<path style="fill:#FFFFFF;" d="M366.958,144.079h-17.067c-3.4-0.019-6.721-1.027-9.557-2.901
				c-4.697-3.185-7.51-8.491-7.509-14.165v-102.4c0.027-9.414,7.652-17.039,17.067-17.067h-25.6
				c-9.414,0.028-17.039,7.652-17.067,17.067v102.4c0,5.675,2.812,10.981,7.509,14.165c2.837,1.874,6.158,2.882,9.557,2.901h17.067
				v42.667l25.6-21.333V144.079z"/>
		</g>
	</g>
	<g>
		<polygon style="fill:#FFFFFF;" points="26.633,494.775 137.566,494.886 192.18,494.945 192.163,512.012 137.549,511.952 
			26.616,511.841 		"/>
		<g>
			<path style="fill:#428DFF;" d="M88.839,497.314l-1.026,1.278c-0.325,0.476-0.584,0.993-0.772,1.537
				c-0.246,0.484-0.418,1.002-0.51,1.537c-0.097,0.563-0.155,1.133-0.173,1.704c0.029,2.259,0.911,4.424,2.469,6.06
				c1.992,2.072,4.905,2.984,7.723,2.417c2.818-0.567,5.152-2.533,6.188-5.215c0.439-1.026,0.672-2.129,0.686-3.245
				c-0.01-3.45-2.089-6.558-5.274-7.884C94.965,494.177,91.295,494.89,88.839,497.314z"/>
			<path style="fill:#428DFF;" d="M154.625,93.879c-14.132,0.015-25.585,11.468-25.6,25.6v2.554
				c-23.729,2.816-46.493,11.049-66.533,24.063C28.375,169.64,6.226,206.894,1.837,248.112c-2.302,20.605,0.161,41.464,7.2,60.967
				c3.72,9.818,8.54,19.183,14.367,27.917c4.972,8.706,8.787,18.024,11.35,27.717c14.912,49.534,9.129,98.25-15.867,133.683
				c-1.839,2.602-2.074,6.013-0.609,8.842c1.465,2.83,4.385,4.607,7.572,4.608c0.265,0,0.503-0.158,0.766-0.183v0.179l34.133,0.035
				c3.049,0.003,5.867-1.62,7.395-4.259c1.527-2.639,1.53-5.892,0.009-8.533c-1.522-2.642-4.337-4.271-7.386-4.274l-19.625-0.02
				c20.855-38.067,24.608-86.331,9.941-135.036c-3-11.171-7.462-21.897-13.271-31.9c-5.159-7.707-9.434-15.97-12.746-24.633
				c-6.142-17.047-8.283-35.277-6.258-53.283c3.817-36.202,23.234-68.939,53.171-89.65c17.212-11.182,36.7-18.386,57.046-21.088
				v105.592c-19.465,9.186-32.473,28.143-34.042,49.61c-1.569,21.466,8.546,42.113,26.468,54.032
				c17.923,11.918,40.875,13.259,60.064,3.51l25.852,36.96c1.122,1.606,2.762,2.778,4.646,3.317l59.733,17.067
				c0.765,0.214,1.556,0.323,2.35,0.325c4.254-0.004,7.856-3.14,8.446-7.353s-2.014-8.217-6.104-9.388l-56.821-16.233
				l-24.136-34.503c14.414-13.476,21.215-33.218,18.16-52.713c-3.055-19.494-15.57-36.209-33.415-44.63V138.959
				c18.119,2.141,35.981,6.078,53.321,11.753c13.822,4.057,26.44,11.439,36.75,21.5c10.16,10.594,18.027,23.17,23.108,36.942
				c2.286,6.577,4.159,13.29,5.608,20.1l0.296,1.258c1.56,6.04,3.755,11.898,6.55,17.475c1.233,2.675,2.471,5.358,3.429,7.825
				c0.468,1.184,0.799,2.417,0.987,3.675c-0.175,1.217-2.829,3.617-4.767,5.375c-5.776,4.052-9.513,10.408-10.246,17.425
				c-0.006,3.517,0.941,6.97,2.742,9.992c8.257,17.079,18.372,33.196,30.162,48.058l0.725,0.908
				c1.721,2.041,3.298,4.199,4.721,6.458c-2.331,2.138-5.008,3.865-7.917,5.108c-6.033,2.983-14.296,7.083-15.937,15.958
				c-1.104,5.343-0.44,10.901,1.892,15.833c1.142,2.333,2.308,4.367,3.329,6.133l0.171,0.3c-3.029,2.325-6.487,4.858-6.508,4.867
				c-1.864,1.367-3.094,3.432-3.408,5.722c-0.314,2.29,0.314,4.61,1.741,6.428c0.457,0.597,0.883,1.217,1.275,1.858
				c-6.076,2.679-10.684,7.873-12.621,14.225c-1.055,4.883-0.863,9.953,0.558,14.742c0.292,1.283,0.592,2.567,0.775,3.942
				c0.328,3.466-0.167,6.961-1.446,10.2c-1.109,5.164-6.186,8.459-11.354,7.367c-6.902-1.411-29.008-6.73-53.08-14.451
				c-0.476-0.203-0.97-0.361-1.475-0.472c-15.744-4.912-31.117-10.945-46-18.052c-2.728-1.369-5.98-1.177-8.528,0.506
				c-2.547,1.682-4.002,4.597-3.814,7.644c0.188,3.047,1.99,5.761,4.725,7.117c10.917,5.296,22.13,9.956,33.585,13.957
				c-10.151,11.17-18.084,24.169-23.377,38.304l-57.166-0.059c-3.049-0.003-5.867,1.62-7.395,4.259
				c-1.527,2.639-1.53,5.892-0.009,8.533s4.337,4.271,7.386,4.274l63.147,0.065v-0.001l0.008,0.001
				c3.713-0.004,6.998-2.405,8.129-5.942c2.954-9.23,13.566-33.665,28.378-43.007c21.602,6.846,41.796,11.945,52.072,14.04
				c1.893,0.39,3.821,0.589,5.754,0.592c11.589-0.165,21.736-7.819,25.079-18.917c2.22-5.828,3.003-12.105,2.283-18.3
				c-0.238-1.783-0.629-3.567-1.025-5.342c-0.699-2.146-0.94-4.414-0.708-6.658c0.308-1.183,1.45-1.983,4.958-3.958
				c1.596-0.9,3.196-1.817,4.713-2.875c2.559-1.777,4.26-4.54,4.696-7.625c0.337-3.089-0.193-6.211-1.529-9.016
				c1.8-1.375,3.563-2.742,4.608-3.633c7.633-6.233,2.604-14.958,0.183-19.158c-0.85-1.475-1.829-3.158-2.808-5.167
				c-0.628-1.494-0.818-3.136-0.546-4.733c2.054-1.754,4.371-3.174,6.867-4.208c2.734-1.275,5.349-2.792,7.812-4.533
				c4.858-2.852,8.337-7.567,9.629-13.05c-0.034-7.534-3.106-14.736-8.521-19.975l-0.796-0.983
				c-11.039-13.979-20.515-29.125-28.258-45.167c-0.302-0.544-0.575-1.103-0.821-1.675c0.009-1.017,2.908-3.642,4.642-5.208
				c5.2-3.807,8.833-9.38,10.217-15.675c0.341-4.05-0.298-8.123-1.862-11.875c-1.188-3.092-2.571-6.108-3.954-9.117
				c-2.289-4.53-4.108-9.283-5.429-14.183l-0.308-1.325c-1.615-7.524-3.704-14.939-6.254-22.2
				c-5.901-15.963-15.033-30.537-26.825-42.808c-12.236-12.062-27.246-20.935-43.712-25.842
				c-19.046-6.238-38.687-10.488-58.608-12.683v-2.325C180.209,105.347,168.757,93.894,154.625,93.879z M197.291,298.679
				c0,23.564-19.103,42.667-42.667,42.667s-42.667-19.103-42.667-42.667c0-23.564,19.103-42.667,42.667-42.667
				C178.177,256.04,197.264,275.126,197.291,298.679z M154.625,238.945c-2.857,0.022-5.709,0.25-8.533,0.681V119.479
				c0-4.713,3.821-8.533,8.533-8.533c4.713,0,8.533,3.821,8.533,8.533v120.148C160.333,239.196,157.482,238.968,154.625,238.945z"/>
			<path style="fill:#428DFF;" d="M487.425,0.012H325.291c-14.132,0.015-25.585,11.468-25.6,25.6v102.4
				c0.015,14.132,11.468,25.585,25.6,25.6h8.533v34.133c0.001,3.311,1.916,6.322,4.914,7.727c2.998,1.405,6.538,0.949,9.082-1.169
				l48.825-40.692h90.779c14.132-0.015,25.585-11.468,25.6-25.6v-102.4C513.009,11.48,501.557,0.028,487.425,0.012z
				 M495.958,128.012c-0.005,4.711-3.822,8.529-8.533,8.533h-93.867c-1.996,0-3.928,0.699-5.463,1.975l-37.204,31.008v-24.45
				c0.001-2.263-0.898-4.434-2.499-6.035c-1.6-1.6-3.771-2.499-6.035-2.499h-17.067c-4.711-0.005-8.529-3.822-8.533-8.533v-102.4
				c0.005-4.711,3.822-8.529,8.533-8.533h162.133c4.711,0.005,8.529,3.822,8.533,8.533V128.012z"/>
			<path style="fill:#428DFF;" d="M365.458,53.712c-1.6-1.601-3.77-2.5-6.033-2.5s-4.434,0.899-6.033,2.5l-17.067,17.067
				c-1.601,1.6-2.5,3.77-2.5,6.033s0.899,4.433,2.5,6.033l17.067,17.067c2.155,2.156,5.297,2.997,8.242,2.208
				c2.944-0.789,5.244-3.089,6.033-6.033c0.789-2.944-0.053-6.086-2.208-8.242l-11.033-11.034l11.034-11.034
				c1.6-1.6,2.5-3.77,2.5-6.033C367.958,57.482,367.058,55.312,365.458,53.712z"/>
			<path style="fill:#428DFF;" d="M459.324,53.712c-3.341-3.281-8.701-3.256-12.012,0.054c-3.311,3.311-3.335,8.671-0.054,12.012
				l11.033,11.034l-11.034,11.034c-2.178,2.151-3.037,5.304-2.251,8.262c0.786,2.958,3.097,5.269,6.055,6.055
				s6.111-0.073,8.262-2.251l17.067-17.067c1.601-1.6,2.5-3.77,2.5-6.033c0-2.263-0.899-4.433-2.5-6.033L459.324,53.712z"/>
			<path style="fill:#428DFF;" d="M422.975,43.579c-4.216-2.097-9.335-0.391-11.45,3.817l-25.6,51.2
				c-2.094,4.214-0.383,9.328,3.826,11.432c4.209,2.104,9.327,0.405,11.441-3.799l25.6-51.2c1.012-2.024,1.179-4.368,0.463-6.516
				C426.539,46.366,424.999,44.591,422.975,43.579z"/>
		</g>
	</g>
</g>
<g>
</g>
<g>
</g>
<g>
</g>
<g>
</g>
<g>
</g>
<g>
</g>
<g>
</g>
<g>
</g>
<g>
</g>
<g>
</g>
<g>
</g>
<g>
</g>
<g>
</g>
<g>
</g>
<g>
</g>
</svg>
